<svg width="50" height="56" viewBox="0 0 50 56" fill="none" xmlns="http://www.w3.org/2000/svg">
<g clip-path="url(#clip0_53_300)">
<path d="M17.1138 34.0148C19.0442 34.0148 20.6092 35.5797 20.6092 37.5102V52.5046C20.6092 54.435 19.0442 55.9998 17.1138 55.9998C15.1836 55.9998 13.6186 54.435 13.6186 52.5046V37.5102C13.6186 35.58 15.1836 34.015 17.1138 34.015V34.0148Z" fill="#FF5000"/>
<path d="M9.13406 15.9875C9.12252 16.12 9.11246 16.254 9.11246 16.3895V39.1073C9.11246 41.5505 11.0463 43.5187 13.4471 43.5187H36.5495C38.9505 43.5187 40.8844 41.5502 40.8844 39.1073V16.3895C40.8844 16.254 40.8795 16.1195 40.8682 15.9875H9.13406Z" fill="#FF5000"/>
<path d="M32.8833 34.0147C34.8138 34.0147 36.3787 35.5797 36.3787 37.5101V52.5045C36.3787 54.435 34.8138 55.9997 32.8833 55.9997C30.9531 55.9997 29.3881 54.435 29.3881 52.5045V37.5101C29.3881 35.58 30.9531 34.015 32.8833 34.015V34.0147ZM3.49639 18.0091C5.42659 18.0091 6.99156 19.5741 6.99156 21.5045V36.4989C6.99156 38.4293 5.42659 39.9943 3.49639 39.9943C1.56595 39.9943 0.000976591 38.4293 0.000976591 36.4992V21.5048C0.000731144 19.5743 1.5657 18.0091 3.49639 18.0091ZM46.501 18.0091C48.4312 18.0091 49.9961 19.5741 49.9961 21.5045V36.4989C49.9961 38.4293 48.4312 39.9943 46.501 39.9943C44.5705 39.9943 43.0056 38.4293 43.0056 36.4992V21.5048C43.0056 19.5743 44.5705 18.0091 46.501 18.0091V18.0091ZM9.23618 14.4951C9.33338 7.51701 15.4239 1.79564 23.2419 1.04163H26.7547C34.5732 1.79588 40.6633 7.5175 40.7605 14.4951H9.23618Z" fill="#FF5000"/>
<path d="M20.3029 8.24162C20.3058 9.21704 19.4985 10.0101 18.4996 10.0128C17.5011 10.0152 16.6892 9.22686 16.6862 8.25144V8.24162C16.6835 7.26596 17.4908 6.47317 18.4895 6.47047C19.488 6.46777 20.2999 7.2559 20.3029 8.23181V8.24162ZM33.8014 8.24162C33.8044 9.21704 32.9971 10.0101 31.9981 10.0128C30.9997 10.0152 30.1877 9.22686 30.1848 8.25144V8.24162C30.1821 7.26596 30.9894 6.47317 31.9881 6.47047C32.9866 6.46777 33.7985 7.2559 33.8014 8.23181V8.24162Z" fill="white"/>
</g>
<defs>
<clipPath id="clip0_53_300">
<rect width="49.9968" height="56" fill="white"/>
</clipPath>
</defs>
</svg>
