<svg width="46" height="56" viewBox="0 0 46 56" fill="none" xmlns="http://www.w3.org/2000/svg">
<g clip-path="url(#clip0_53_298)">
<path d="M25.1882 4.87416C28.8675 0.0247404 33.9826 0.00109863 33.9826 0.00109863C33.9826 0.00109863 34.7434 4.56038 31.0883 8.95241C27.1854 13.6421 22.7493 12.8747 22.7493 12.8747C22.7493 12.8747 21.9163 9.18644 25.1882 4.87416V4.87416ZM23.2173 16.0685C25.1101 16.0685 28.6231 13.4666 33.1957 13.4666C41.0667 13.4666 44.1631 19.0673 44.1631 19.0673C44.1631 19.0673 38.107 22.1637 38.107 29.6768C38.107 38.1522 45.6512 41.0731 45.6512 41.0731C45.6512 41.0731 40.3775 55.9166 33.2543 55.9166C29.9826 55.9166 27.439 53.7118 23.9919 53.7118C20.4789 53.7118 16.9928 55.9988 14.7222 55.9988C8.21762 55.999 3.05176e-05 41.9185 3.05176e-05 30.6C3.05176e-05 19.4643 6.95569 13.6226 13.4798 13.6226C17.7211 13.6226 21.0123 16.0685 23.2173 16.0685V16.0685Z" fill="#FF5000"/>
</g>
<defs>
<clipPath id="clip0_53_298">
<rect width="45.6512" height="56" fill="white"/>
</clipPath>
</defs>
</svg>
