<svg width="56" height="56" viewBox="0 0 56 56" fill="none" xmlns="http://www.w3.org/2000/svg">
<path fill-rule="evenodd" clip-rule="evenodd" d="M52.407 32.9232C50.1351 43.5058 40.6954 51.4809 29.4499 51.4809C16.5173 51.4809 5.96963 40.9329 5.96963 28.0003C5.96963 15.0679 16.5173 4.51993 29.4499 4.51993C40.6231 4.51993 50.0145 12.3934 52.3631 22.8755C49.9924 11.7415 40.0699 3.34564 28.2469 3.34564C14.6679 3.34564 3.59258 14.4209 3.59258 28C3.59258 41.5793 14.6679 52.6543 28.2469 52.6543C40.1414 52.6543 50.1139 44.1571 52.407 32.9232V32.9232Z" fill="#FF5000"/>
<path fill-rule="evenodd" clip-rule="evenodd" d="M25.5041 40.259C26.8626 40.119 27.0418 38.6815 26.4018 38.0534C25.8748 37.5365 22.9664 35.3774 22.2075 34.5285C21.8554 34.1348 21.3778 33.9413 21.1756 33.4985C20.7105 32.48 20.3845 31.0262 20.9746 29.9826C21.0815 29.7938 21.15 29.8783 21.0684 30.2714C20.605 32.4986 22.0553 34.3184 22.3746 33.385C22.5951 32.7403 22.3908 31.5872 22.5085 30.6715C22.7171 29.0509 24.1924 25.9388 24.8402 25.761C23.8411 23.9098 26.0122 22.461 25.9858 20.8364C25.968 19.7797 26.9134 22.1353 27.8637 22.6347C28.9247 23.1922 30.0908 21.5836 31.7465 20.7672C32.2145 20.5363 32.8156 20.271 32.7753 20.074C32.5806 19.124 30.601 21.246 28.8323 21.3175C28.0252 21.3497 27.7257 21.1588 27.414 20.8579C26.4715 19.9468 27.5101 20.7071 28.911 20.4537C29.5342 20.341 29.7434 20.237 30.404 19.97C31.065 19.703 31.8203 19.3076 32.5681 19.1046C33.0884 18.9631 33.0454 18.572 32.8427 18.4544C32.7259 18.3867 32.5533 18.3933 32.4165 18.6298C32.0954 19.1847 30.5865 19.5055 30.1161 19.6493C29.5112 19.8341 28.8422 20.0069 27.954 19.9709C26.6043 19.9163 26.9189 19.2975 25.9532 18.7437C25.67 18.5813 25.7467 18.1551 26.1226 17.7789C26.3196 17.5816 26.8599 17.4704 27.1278 17.0218C27.1653 16.9587 27.5104 16.5979 27.7812 16.4108C27.8747 16.346 27.8829 14.6979 27.0372 14.6639C26.3187 14.6348 26.1145 15.1918 26.1447 15.747C26.1746 16.3016 26.4686 16.7592 26.6644 16.7571C27.0415 16.7531 26.6885 17.1697 26.482 17.2368C26.1682 17.339 25.7382 16.0018 25.7876 15.3597C25.8393 14.6909 26.1874 13.5067 27.034 13.5297C27.7963 13.5503 28.3486 14.5059 28.3207 16.1543C28.3155 16.4338 29.5566 16.0209 29.9708 16.4585C30.2666 16.7714 28.9563 13.5381 31.8746 13.3156C32.6434 13.4626 33.3819 13.7185 33.6887 15.4861C33.5751 15.67 33.8798 16.903 33.4054 17.0494C32.8261 17.2281 32.4685 17.0235 32.8034 16.4721C33.0327 15.9181 32.8087 14.509 31.6367 14.5936C30.4644 14.6781 30.6199 16.758 30.9409 16.7992C31.2625 16.8402 32.0719 17.4146 32.637 17.5247C34.4908 17.8855 33.1288 18.9485 33.3694 20.2353C33.6413 21.6885 34.5983 21.3047 35.4585 25.153C35.6383 25.3874 36.3504 25.6091 37.0451 28.5657C37.6697 31.2252 36.785 33.1595 38.287 33.0009C38.6252 32.9651 39.1194 32.8704 39.3344 32.1168C39.8968 30.1474 39.0528 27.7996 38.2013 26.2157C37.7054 25.2921 37.238 24.6634 36.9916 24.4473C37.9675 25.0243 39.2152 26.8668 39.5032 28.2351C39.8817 30.0323 40.151 30.7926 39.5793 32.6929C39.9096 32.8579 40.7312 33.2072 40.7312 33.5991C39.8756 32.8954 37.2551 32.7705 37.1877 34.4529C36.7406 34.4619 36.403 34.4982 36.1154 34.8399C35.0617 36.09 36.0398 38.6007 35.9332 39.9467C35.8391 41.1315 35.5105 42.3055 35.3249 43.4955C34.6979 43.4716 34.7592 43.0126 34.9606 42.3685C35.1381 41.8006 35.4242 41.0885 35.4428 40.4057C35.46 39.7878 35.3923 39.402 35.2368 39.3061C35.0808 39.2102 34.8368 39.4043 34.4998 39.9473C33.7802 41.1059 32.2215 41.6155 30.766 41.7982C29.3105 41.9804 27.9575 41.8357 27.2411 41.0333C26.9962 40.7587 26.59 41.1082 26.5418 41.1809C26.477 41.2785 26.7789 41.4679 27.0064 41.8857C27.3387 42.4952 27.6545 43.4199 26.8675 43.8421C26.8777 41.6963 26.1984 41.5705 25.5041 40.259ZM24.984 40.2024C25.5055 41.0234 27.3434 44.4803 24.1218 44.9292C23.0442 45.0791 21.3095 44.3023 19.6286 43.8909C18.1184 43.5216 16.5848 43.3031 15.7263 43.0614C15.2094 42.9167 14.9936 42.7311 14.9486 42.5144C14.8294 41.9406 15.5761 41.1361 15.6139 40.4569C15.6516 39.7776 15.366 39.4241 15.1322 38.8703C14.8977 38.3143 14.837 37.8982 15.0244 37.66C15.1702 37.4749 15.4666 37.3974 15.9488 37.4444C16.5601 37.5052 17.298 37.3797 17.6946 37.1379C18.3625 36.73 18.6765 35.8954 18.3761 34.8893C18.3761 35.8739 18.0534 36.2466 17.2443 36.6966C16.4816 37.1211 15.3044 36.7777 14.7635 37.2475C14.1124 37.812 14.9959 39.271 14.9236 40.341C14.8681 41.1637 14.0096 42.0902 14.3925 42.9153C14.7777 43.7453 16.5737 43.8363 18.4461 44.2273C21.1079 44.7845 22.6596 45.7537 23.8894 45.799C25.6833 45.8659 25.9582 44.0242 28.7751 43.9992C29.5967 43.9562 30.4002 43.9307 31.203 43.9205C32.1126 43.9092 33.021 43.9164 33.9539 43.9391C35.8286 43.9844 35.184 44.9626 36.4001 45.5875C37.4265 46.1145 39.2713 45.9065 39.7126 45.4853C40.3102 44.9156 41.9136 43.5451 43.1422 42.926C44.6736 42.1544 48.2699 40.8258 45.6593 39.2059C45.051 38.8279 43.612 38.429 43.4911 35.6673C42.9464 36.1513 43.0095 38.7245 44.5295 39.2352C46.2273 39.8055 47.2883 40.7605 44.1317 41.8404C42.0414 42.5548 41.6867 42.775 40.0322 44.1521C38.3576 45.5457 35.8737 44.9925 36.3071 42.0582C36.5334 40.5295 36.6636 39.2666 36.2833 37.9375C36.0971 37.289 36.0047 36.4558 36.1319 35.8721C36.3789 34.7368 36.9933 34.3951 37.5959 35.4851C37.9739 36.1693 38.1066 36.9689 39.4604 37.0342C41.5871 37.1359 42.0083 34.9791 42.6879 34.8809C43.1414 34.8155 43.5946 33.532 43.2491 31.4565C42.8793 29.2345 41.572 25.7253 39.8951 23.9458C38.5014 22.4671 37.6232 21.1702 37.0703 19.3195C36.6061 17.7647 36.3475 16.2513 36.4428 14.8045C36.5666 12.9298 35.5271 10.3209 33.8717 9.09368C32.8357 8.32525 31.2111 7.91358 29.7408 7.92985C28.9157 7.93885 28.1397 8.05913 27.543 8.38306C25.0883 9.7157 24.7455 11.6192 24.7824 13.7917C24.817 15.8324 24.8864 18.1612 25.1183 20.3768C24.8437 21.3939 23.4146 23.3224 22.4995 24.4958C21.2691 25.7114 20.6477 28.0602 19.8517 30.1125C19.4269 31.2066 18.7117 31.7008 18.6515 33.1075C18.6347 33.5012 18.6483 34.5186 19.0243 34.2275C20.4629 33.1145 22.2639 35.9206 24.984 40.2024ZM32.4528 10.7863C32.3755 11.0181 32.0562 11.2113 32.2587 11.3737C32.4612 11.5361 32.5777 11.1468 32.9856 11.001C33.0911 10.9632 33.5815 11.0167 33.6715 10.7837C33.7107 10.682 33.4185 10.5661 33.2447 10.3996C33.0704 10.2334 32.8996 10.0855 32.7363 10.096C32.3139 10.123 32.5213 10.5809 32.4528 10.7863ZM34.9533 19.2487C35.1052 19.0892 35.1837 19.5241 35.5922 19.7818C35.9161 19.9863 36.231 19.8346 36.3126 20.2486C36.371 20.5455 36.186 20.8674 35.937 20.8256C35.5044 20.7527 34.5047 19.7205 34.9533 19.2487ZM28.2045 16.6371C27.5313 16.5869 27.4851 17.0735 27.708 17.0654C27.9355 17.0572 27.7957 16.6804 28.2045 16.6371ZM27.0499 15.3943C27.1295 15.3768 27.2426 15.5125 27.2074 15.7025C27.1586 15.9663 27.1798 16.1316 27.3625 16.1322C27.3928 16.1322 27.4253 16.1264 27.4366 16.0581C27.5244 15.5326 27.2513 15.1467 27.1397 15.1183C26.8826 15.0526 26.9137 15.4233 27.0499 15.3943ZM31.949 15.172C32.1198 15.2229 32.2843 15.5183 32.32 15.8376C32.3235 15.8675 32.5431 15.7917 32.5446 15.722C32.5588 15.208 32.1195 14.9663 32.0051 14.9768C31.7407 15.0006 31.8157 15.1319 31.949 15.172ZM29.4375 16.6999C30.0496 16.416 30.2637 16.8556 30.0525 16.9262C29.8369 16.9985 29.8352 16.5965 29.4375 16.6999ZM22.046 27.1274C21.7566 27.0922 22.1303 26.8749 22.2886 26.6015C22.4626 26.3005 22.4289 25.9249 22.6119 25.9804C22.7947 26.0359 22.693 26.2462 22.5678 26.5911C22.4609 26.8848 22.1526 27.1401 22.046 27.1274Z" fill="#FF5000"/>
</svg>
