<svg width="68" height="56" viewBox="0 0 68 56" fill="none" xmlns="http://www.w3.org/2000/svg">
<g clip-path="url(#clip0_55_318)">
<path d="M66.1653 0H1.74053C0.749471 0 0.006073 0.7434 0.006073 1.7346V44.8497C0.006073 45.8408 0.749471 46.5843 1.74053 46.5843H29.4104L28.1712 52.1181C27.7582 54.0177 26.0236 55.2567 24.124 55.0915H24.0414C23.7936 55.0915 23.5459 55.3395 23.5459 55.587C23.5459 55.8349 23.7113 56 23.8762 56H43.8641C44.0294 55.9174 44.1945 55.7521 44.1945 55.587C44.1945 55.3392 43.9465 55.0915 43.6989 55.0915H43.6163C41.7166 55.1741 39.982 53.9351 39.5692 52.1181L38.3302 46.5843H65.9997C66.9909 46.5843 67.7344 45.8408 67.7344 44.8497V1.73446C67.8998 0.743261 67.1565 0 66.1653 0V0ZM65.0915 43.5281H2.89693V2.72566H65.1743V43.5281H65.0915V43.5281Z" fill="#FF5000"/>
</g>
<defs>
<clipPath id="clip0_55_318">
<rect width="67.7638" height="56" fill="white"/>
</clipPath>
</defs>
</svg>
