<svg width="72" height="56" viewBox="0 0 72 56" fill="none" xmlns="http://www.w3.org/2000/svg">
<path d="M1.45725 40.8258C-1.24118 42.6323 -0.341701 46.0645 5.41494 47.6903C11.3515 49.6774 17.8277 50.2194 24.124 49.1355C24.4838 49.1355 24.8436 48.9548 25.0235 48.9548V42.8129L18.9071 44.8C16.5684 45.5226 14.2298 45.7032 11.8912 45.1613C10.0922 44.6194 10.452 43.5355 12.6107 42.6323L25.0235 38.2968V31.6129L7.75357 37.5742C5.59483 38.2968 3.43609 39.3806 1.45725 40.8258V40.8258ZM43.1929 13.729V31.2516C50.5686 34.8645 56.3252 31.2516 56.3252 21.8581C56.3252 12.2839 52.9072 7.94839 43.013 4.51613C37.796 2.70968 32.3992 1.08387 27.0023 0V52.2065L39.595 56V12.1032C39.595 10.1161 39.595 8.67097 41.0342 9.2129C43.013 9.75484 43.1929 11.7419 43.1929 13.729ZM66.5792 36.671C61.3623 34.8645 55.7855 34.1419 50.3887 34.6839C47.5104 34.8645 44.8119 35.5871 42.2934 36.4903L41.7537 36.671V43.7161L53.4469 39.3806C55.7855 38.6581 58.1242 38.4774 60.4628 39.0194C62.2618 39.5613 61.902 40.6452 59.7432 41.5484L41.7537 48.2323V55.0968L66.5792 45.8839C68.3782 45.1613 69.9973 44.2581 71.4364 42.8129C72.6957 41.0065 72.156 38.4774 66.5792 36.671V36.671Z" fill="#FF5000"/>
</svg>
