<svg width="58" height="56" viewBox="0 0 58 56" fill="none" xmlns="http://www.w3.org/2000/svg">
<g clip-path="url(#clip0_53_306)">
<path d="M57.6844 55.9986H6.10352e-05V0.0120239C0.0748094 0.0120239 0.149558 0.0227023 0.224306 0.0227023H57.6844V55.9986Z" fill="#FF5000"/>
<path d="M31.8 27.0496V10.1245C31.8 9.44106 31.8 9.44106 32.5048 9.44106C34.2026 9.44106 35.8898 9.43038 37.5877 9.44106C42.0619 9.46241 45.8847 12.8581 46.44 17.3003C46.4934 17.7274 46.5147 18.1653 46.5147 18.5924C46.5147 24.2626 46.5254 29.9328 46.5147 35.603C46.5147 40.0879 43.5568 43.7078 39.1574 44.5941C38.5701 44.7116 37.9614 44.7436 37.3634 44.7543C35.6976 44.7757 34.0318 44.765 32.366 44.765C31.8321 44.765 31.8 44.733 31.8 44.1884V27.0496ZM42.3182 28.8756C42.3182 26.8895 40.7591 25.3304 38.7943 25.3304C36.8402 25.3304 35.2705 26.8895 35.2598 28.8436C35.2491 30.8298 36.8081 32.4102 38.773 32.4208C40.7378 32.4208 42.3075 30.8511 42.3182 28.8756ZM28.3296 27.1351V44.0602C28.3296 44.765 28.3296 44.765 27.6355 44.765C25.1474 44.765 22.6487 44.797 20.1607 44.7543C15.4836 44.6689 11.6607 40.9849 11.3724 36.3291C11.3511 35.9127 11.3297 35.4855 11.3297 35.0691V18.8593C11.3297 17.1295 11.65 15.485 12.547 14.0007C14.3196 11.0642 16.9251 9.5158 20.3635 9.45173C22.8089 9.40902 25.2649 9.44106 27.7102 9.44106C28.3189 9.44106 28.3296 9.45173 28.3296 10.0818V27.1351ZM25.4357 12.3349H19.7442C19.5413 12.3349 19.3278 12.3883 19.1249 12.431C16.1563 13.0824 14.2022 15.5384 14.2022 18.6885C14.1915 24.2839 14.2022 29.8901 14.2022 35.4855C14.2022 35.9127 14.2342 36.3611 14.3089 36.7776C14.8963 39.8316 17.3416 41.8498 20.449 41.8712C21.976 41.8818 23.503 41.8712 25.03 41.8712C25.1581 41.8712 25.2969 41.8498 25.4357 41.8498V12.3349Z" fill="white"/>
<path d="M17 20.353C17 18.5056 18.4843 17 20.3103 17C22.147 17 23.6419 18.5163 23.6313 20.353C23.6206 22.1897 22.147 23.6633 20.3317 23.6846C18.5056 23.706 17 22.2004 17 20.353V20.353ZM55.7838 64.3905V65.3729H56.1576V64.3905H56.4673V64.0808H55.4208V64.3905H55.7838ZM56.7129 64.1342V65.3729H56.9585V64.6574C56.9585 64.6147 57.0118 64.604 57.0225 64.6467L57.2895 65.3729H57.5458L57.738 64.6254C57.7487 64.604 57.7807 64.604 57.7807 64.6254V65.3729H58.069V64.1342H57.738L57.4497 64.9244C57.439 64.9457 57.4069 64.9457 57.4069 64.9244L57.14 64.1342H56.7129V64.1342Z" fill="white"/>
</g>
<defs>
<clipPath id="clip0_53_306">
<rect width="57.6844" height="56" rx="20" fill="white"/>
</clipPath>
</defs>
</svg>
