<svg width="56" height="56" viewBox="0 0 56 56" fill="none" xmlns="http://www.w3.org/2000/svg">
<path d="M8.32892 8.07485V8.0778C5.68695 10.6787 3.58972 13.7798 2.15968 17.2001C0.729644 20.6204 -0.00453195 24.2914 2.59891e-05 27.9985C-0.00833974 34.1269 2.00316 40.0874 5.72338 44.9578C5.76165 45.0049 5.82053 45.0314 5.87353 45.0049C5.92358 44.9754 5.92652 44.9136 5.90591 44.8606C3.77143 38.2606 14.6823 22.264 20.3203 15.558C20.3379 15.5345 20.3615 15.508 20.3615 15.4756C20.3615 15.4373 20.335 15.4079 20.3085 15.3843C10.8255 5.94648 8.29359 8.10429 8.32892 8.07485ZM47.6475 8.0513L47.674 8.07485V8.0778C50.3157 10.6787 52.4126 13.7799 53.8421 17.2003C55.2717 20.6206 56.0052 24.2915 56 27.9985C56.0083 34.1269 53.9968 40.0874 50.2766 44.9578C50.2413 45.0049 50.1795 45.0314 50.1265 45.0049C50.0794 44.9754 50.0764 44.9136 50.0941 44.8606C52.2286 38.2606 41.3265 22.2522 35.6915 15.5433C35.6709 15.5197 35.6503 15.4932 35.6503 15.4638C35.6503 15.4226 35.6738 15.3931 35.7033 15.3696C45.1892 5.93176 47.7035 8.10429 47.6711 8.07485L47.6475 8.0513ZM28.0015 0C33.6512 0 38.3 1.54844 42.5866 4.09777C42.6396 4.12427 42.6543 4.18314 42.6337 4.23613C42.6131 4.28618 42.5542 4.29795 42.4983 4.28323C37.0782 3.1116 28.8376 7.79519 28.0604 8.26326C28.0427 8.27503 28.025 8.28681 28.0015 8.28681C27.975 8.28681 27.9573 8.27503 27.9396 8.26326C25.8729 7.0769 18.2565 3.08511 13.4605 4.31267C13.4075 4.32445 13.3486 4.31562 13.3251 4.26263C13.315 4.23775 13.3143 4.21009 13.3229 4.18469C13.3316 4.15929 13.349 4.13785 13.3722 4.12427C17.6588 1.54844 22.3664 0 28.0015 0ZM28.0015 22.4553C28.0339 22.4553 28.0692 22.4818 28.0898 22.4995C36.4687 28.8699 50.8095 44.6192 46.4316 49.0732L46.4375 49.0673L46.4346 49.0732H46.4287C41.3321 53.5462 34.7799 56.0088 27.9985 56C21.2164 56.0081 14.6635 53.5457 9.56545 49.0732C5.19638 44.6192 19.5342 28.8699 27.9043 22.4995C27.9279 22.4818 27.9661 22.4553 28.0015 22.4553Z" fill="#FF5000"/>
</svg>
