<svg width="157" height="190" viewBox="0 0 157 190" fill="none" xmlns="http://www.w3.org/2000/svg">
<path d="M64.8235 135.16L67.4286 150.79L71.3361 159.907L76.5462 167.723L81.7563 174.235L89.2132 180.504L98.4448 184.607L109.109 187.684L119.985 188.71H130.243L138.449 187.684L146.027 183.581L152.092 176.84L156 167.723V158.963L152.809 151.783L148.706 148.185L142.551 145.629H136.397L130.243 146.654L126.14 149.732L123.437 152.809L121.011 158.963V163.066L122.037 167.723L126.14 172.298L131.252 176.84H120.128L109.109 175.538L96.084 170.328L86.9664 159.907L80.4538 148.185L79.1513 135.16L80.4538 122.134L86.9664 109.109L96.084 99.9915L109.109 93.4789L118.601 114.319L123.437 119.529L131.252 122.134H140.37L150.79 116.924L156 107.807V100.643V93.4789L152.092 87.1618L144.603 81.7563L138.449 80.4537H118.601L84.3613 3.60504L79.1513 1L73.9412 3.60504L40.0756 80.4537H16.6303L7.5126 85.6638L1 96.084V107.807L7.5126 116.924L16.6303 122.134H27.0504L37.4706 116.924L42.6807 107.807L46.1324 99.9915L49.2096 92.1765H64.8235H70.75H79.1513L84.0846 88.1875L88.2689 85.6638L97.3866 81.0073L64.8235 80.4537H54.4034L79.1513 27.0504L103.899 83.0588L97.3866 85.6638L88.2689 90.8739L76.5462 101.294L67.4286 116.924L64.8235 135.16Z" fill="#FF5000" stroke="black" stroke-linecap="round" stroke-linejoin="round"/>
</svg>
